<svg width="257" height="187" viewBox="0 0 257 187" fill="none" xmlns="http://www.w3.org/2000/svg">
<g filter="url(#filter0_d_1253_6170)">
<g filter="url(#filter1_d_1253_6170)">
<path d="M88 47L91.5 40H131.5L140 146.5L40 133.5L45 130L53.5 124.5L60.5 118.5L66.5 111.5L72.5 102.5L76.5 95L79.5 83L81.5 70.5L83.5 60.5L88 47Z" fill="#FFBF64"/>
<path d="M169 47L165.5 40H125.5L117 146.5L217 133.5L212 130L203.5 124.5L196.5 118.5L190.5 111.5L184.5 102.5L180.5 95L177.5 83L175.5 70.5L173.5 60.5L169 47Z" fill="#FFBF64"/>
</g>
<g filter="url(#filter2_d_1253_6170)">
<circle cx="128.5" cy="62.5" r="22.5" stroke="#FFBF64" stroke-width="42" shape-rendering="crispEdges"/>
</g>
<circle cx="128.5" cy="62.5" r="36.5" fill="#FFBF64"/>
</g>
<defs>
<filter id="filter0_d_1253_6170" x="36" y="19" width="185" height="135.5" filterUnits="userSpaceOnUse" color-interpolation-filters="sRGB">
<feFlood flood-opacity="0" result="BackgroundImageFix"/>
<feColorMatrix in="SourceAlpha" type="matrix" values="0 0 0 0 0 0 0 0 0 0 0 0 0 0 0 0 0 0 127 0" result="hardAlpha"/>
<feOffset dy="4"/>
<feGaussianBlur stdDeviation="2"/>
<feComposite in2="hardAlpha" operator="out"/>
<feColorMatrix type="matrix" values="0 0 0 0 0 0 0 0 0 0 0 0 0 0 0 0 0 0 0.25 0"/>
<feBlend mode="normal" in2="BackgroundImageFix" result="effect1_dropShadow_1253_6170"/>
<feBlend mode="normal" in="SourceGraphic" in2="effect1_dropShadow_1253_6170" result="shape"/>
</filter>
<filter id="filter1_d_1253_6170" x="0" y="0" width="257" height="186.5" filterUnits="userSpaceOnUse" color-interpolation-filters="sRGB">
<feFlood flood-opacity="0" result="BackgroundImageFix"/>
<feColorMatrix in="SourceAlpha" type="matrix" values="0 0 0 0 0 0 0 0 0 0 0 0 0 0 0 0 0 0 127 0" result="hardAlpha"/>
<feOffset/>
<feGaussianBlur stdDeviation="20"/>
<feComposite in2="hardAlpha" operator="out"/>
<feColorMatrix type="matrix" values="0 0 0 0 1 0 0 0 0 1 0 0 0 0 1 0 0 0 1 0"/>
<feBlend mode="normal" in2="BackgroundImageFix" result="effect1_dropShadow_1253_6170"/>
<feBlend mode="normal" in="SourceGraphic" in2="effect1_dropShadow_1253_6170" result="shape"/>
</filter>
<filter id="filter2_d_1253_6170" x="81" y="19" width="95" height="95" filterUnits="userSpaceOnUse" color-interpolation-filters="sRGB">
<feFlood flood-opacity="0" result="BackgroundImageFix"/>
<feColorMatrix in="SourceAlpha" type="matrix" values="0 0 0 0 0 0 0 0 0 0 0 0 0 0 0 0 0 0 127 0" result="hardAlpha"/>
<feOffset dy="4"/>
<feGaussianBlur stdDeviation="2"/>
<feComposite in2="hardAlpha" operator="out"/>
<feColorMatrix type="matrix" values="0 0 0 0 0 0 0 0 0 0 0 0 0 0 0 0 0 0 0.25 0"/>
<feBlend mode="normal" in2="BackgroundImageFix" result="effect1_dropShadow_1253_6170"/>
<feBlend mode="normal" in="SourceGraphic" in2="effect1_dropShadow_1253_6170" result="shape"/>
</filter>
</defs>
</svg>
