<?xml version="1.0" standalone="no"?>
<!DOCTYPE svg PUBLIC "-//W3C//DTD SVG 20010904//EN"
 "http://www.w3.org/TR/2001/REC-SVG-20010904/DTD/svg10.dtd">
<svg version="1.0" xmlns="http://www.w3.org/2000/svg"
 width="4096.000000pt" height="4096.000000pt" viewBox="0 0 4096.000000 4096.000000"
 preserveAspectRatio="xMidYMid meet">

<g transform="translate(0.000000,4096.000000) scale(0.100000,-0.100000)"
fill="#000000" stroke="none">
<path d="M35950 36560 c-30 -16 -64 -29 -74 -30 -11 0 -34 -11 -51 -25 -29
-22 -295 -155 -310 -155 -3 0 -36 -18 -73 -40 -37 -22 -85 -46 -107 -52 -22
-7 -53 -22 -70 -34 -33 -24 -324 -167 -365 -179 -14 -4 -32 -13 -41 -21 -23
-21 -647 -332 -679 -339 -16 -3 -34 -13 -41 -21 -17 -21 -84 -54 -108 -54 -11
0 -32 -11 -48 -23 -34 -29 -288 -157 -310 -157 -9 0 -39 -15 -67 -34 -28 -18
-107 -61 -176 -96 -69 -34 -132 -68 -140 -74 -8 -7 -37 -21 -65 -31 -27 -10
-230 -109 -450 -220 -220 -111 -414 -205 -432 -209 -17 -4 -37 -14 -44 -22
-17 -21 -84 -54 -108 -54 -11 0 -32 -11 -48 -23 -15 -13 -172 -96 -348 -184
-176 -89 -338 -170 -360 -182 -145 -75 -1075 -531 -1095 -537 -14 -3 -37 -17
-51 -29 -15 -12 -42 -27 -60 -34 -19 -7 -50 -21 -69 -32 -93 -51 -675 -339
-686 -339 -7 0 -21 -8 -31 -18 -10 -11 -52 -34 -93 -53 -41 -18 -242 -118
-446 -220 -204 -103 -385 -190 -402 -194 -17 -3 -36 -13 -43 -21 -17 -21 -84
-54 -108 -54 -11 0 -32 -11 -48 -23 -24 -20 -455 -242 -768 -395 -202 -99
-1096 -545 -1175 -587 -47 -24 -200 -101 -339 -170 -140 -69 -262 -132 -271
-140 -9 -8 -22 -15 -29 -15 -10 0 -31 -10 -131 -65 -14 -7 -49 -23 -78 -36
-29 -12 -58 -29 -64 -36 -6 -7 -17 -13 -25 -13 -16 0 -511 -245 -533 -264 -8
-8 -26 -16 -40 -19 -14 -4 -51 -22 -84 -42 -32 -19 -64 -35 -71 -35 -16 0
-173 -80 -213 -108 -16 -12 -35 -22 -42 -22 -15 0 -650 -317 -669 -334 -9 -8
-41 -24 -72 -35 -30 -12 -70 -32 -89 -46 -19 -14 -40 -25 -47 -25 -18 0 -110
-47 -118 -60 -3 -5 -13 -10 -21 -10 -16 0 -350 -164 -374 -184 -8 -7 -36 -20
-62 -30 -26 -10 -63 -28 -82 -41 -18 -12 -48 -26 -65 -30 -17 -4 -53 -22 -81
-41 -27 -19 -57 -34 -66 -34 -10 0 -32 -11 -50 -25 -18 -14 -38 -25 -44 -25
-17 0 -647 -316 -677 -340 -14 -11 -42 -24 -63 -30 -20 -5 -57 -23 -81 -40
-24 -16 -50 -30 -57 -30 -17 0 -90 -38 -121 -61 -13 -11 -30 -19 -37 -19 -17
0 -330 -154 -353 -173 -9 -8 -37 -21 -63 -31 -26 -10 -63 -28 -83 -42 -20 -13
-40 -24 -46 -24 -19 0 -115 -48 -128 -64 -7 -9 -22 -16 -32 -16 -10 0 -46 -16
-80 -36 -34 -20 -71 -39 -83 -43 -11 -4 -88 -40 -169 -80 -135 -67 -150 -72
-164 -58 -15 14 -12 22 31 86 26 38 54 75 62 82 8 6 14 17 14 24 0 7 7 18 16
26 9 7 28 38 44 69 16 31 36 62 45 70 9 7 25 30 35 49 10 20 30 47 44 60 14
14 26 29 26 34 0 5 15 27 33 50 19 23 54 76 80 117 25 41 73 111 105 155 32
44 66 96 75 116 15 32 37 65 99 143 13 16 32 44 43 62 38 61 96 142 110 154 8
7 15 17 15 22 0 12 105 172 124 187 8 7 33 44 57 84 50 86 78 127 124 187 19
25 43 61 54 81 11 19 26 41 34 48 15 12 47 60 139 209 23 37 54 81 68 97 15
17 37 48 49 70 13 22 34 53 48 70 13 16 39 51 56 78 18 26 75 111 128 190 53
78 102 153 109 167 7 14 31 46 52 71 21 25 38 48 38 52 0 4 16 27 35 53 19 25
35 52 35 59 0 8 13 29 29 47 15 18 40 51 55 73 14 22 44 65 66 95 72 99 100
141 125 189 13 26 31 54 40 61 9 8 41 51 71 96 29 44 61 87 69 94 9 8 28 37
42 64 14 28 40 69 57 91 33 41 41 53 102 145 20 30 45 66 55 80 11 14 31 48
45 75 15 28 42 67 60 88 19 20 34 41 34 47 0 5 14 25 30 44 17 18 37 50 45 69
8 20 21 40 28 44 7 4 24 26 37 48 13 22 50 75 82 118 32 43 58 80 58 83 0 7
62 90 106 142 53 64 94 159 94 220 0 75 -94 204 -158 218 -15 3 -40 10 -56 15
-41 13 -85 11 -134 -6 -57 -20 -119 -52 -127 -65 -4 -6 -17 -15 -28 -21 -12
-5 -42 -25 -67 -43 -25 -19 -83 -61 -130 -92 -47 -31 -96 -66 -110 -76 -31
-22 -84 -58 -172 -116 -37 -24 -70 -47 -73 -52 -3 -5 -34 -25 -68 -45 -34 -20
-102 -65 -152 -101 -49 -35 -103 -72 -119 -82 -16 -9 -46 -32 -66 -49 -21 -18
-43 -33 -49 -33 -11 0 -76 -43 -211 -140 -30 -21 -60 -39 -66 -40 -6 0 -17 -7
-25 -16 -7 -8 -29 -24 -48 -35 -20 -11 -56 -35 -81 -54 -75 -58 -161 -115
-210 -140 -25 -13 -52 -31 -59 -39 -11 -13 -129 -95 -261 -183 -14 -9 -44 -29
-67 -45 -23 -15 -44 -28 -48 -28 -7 0 -74 -50 -115 -86 -14 -12 -47 -35 -75
-50 -27 -15 -77 -47 -110 -71 -97 -70 -167 -116 -215 -140 -24 -13 -57 -35
-72 -50 -15 -14 -35 -31 -45 -37 -62 -37 -91 -56 -153 -101 -38 -27 -102 -72
-142 -98 -40 -26 -93 -63 -118 -82 -25 -20 -66 -46 -92 -59 -26 -12 -64 -37
-85 -55 -21 -18 -82 -62 -136 -97 -55 -35 -114 -77 -133 -94 -19 -16 -42 -30
-52 -30 -10 0 -39 -18 -66 -40 -26 -22 -52 -40 -57 -40 -5 0 -26 -15 -46 -33
-43 -37 -142 -104 -170 -113 -10 -4 -30 -18 -45 -32 -26 -24 -45 -37 -127 -87
-19 -11 -74 -48 -125 -82 -50 -34 -128 -87 -173 -117 -44 -30 -84 -60 -88 -66
-3 -6 -30 -22 -58 -36 -29 -14 -66 -40 -83 -56 -18 -16 -50 -40 -71 -51 -59
-33 -96 -56 -186 -119 -45 -32 -104 -72 -131 -90 -26 -18 -64 -46 -83 -63 -20
-16 -59 -43 -87 -60 -106 -62 -120 -71 -155 -101 -20 -17 -58 -43 -86 -58 -27
-15 -90 -56 -140 -91 -116 -84 -191 -134 -238 -160 -21 -12 -55 -34 -75 -50
-39 -32 -280 -195 -287 -195 -4 0 -126 -88 -205 -148 -14 -11 -45 -29 -70 -42
-25 -12 -61 -37 -81 -54 -20 -17 -49 -39 -65 -48 -50 -30 -68 -42 -100 -69
-17 -14 -73 -52 -125 -83 -52 -31 -121 -77 -154 -101 -104 -77 -146 -105 -194
-129 -25 -13 -55 -34 -66 -46 -11 -12 -33 -29 -48 -37 -16 -8 -49 -30 -74 -49
-24 -19 -51 -34 -58 -34 -8 0 -34 -17 -59 -37 -25 -21 -75 -58 -112 -83 -36
-25 -94 -65 -128 -90 -33 -25 -78 -54 -99 -64 -21 -9 -52 -30 -70 -44 -38 -32
-115 -85 -301 -208 -16 -10 -39 -26 -51 -34 -13 -8 -51 -33 -86 -54 -35 -22
-84 -57 -108 -78 -24 -21 -64 -48 -88 -60 -24 -12 -61 -36 -81 -53 -51 -43
-162 -115 -177 -115 -6 0 -20 -10 -31 -21 -21 -24 -96 -76 -183 -127 -31 -18
-65 -41 -76 -51 -20 -18 -139 -99 -201 -137 -19 -11 -47 -32 -62 -46 -15 -14
-49 -38 -77 -52 -27 -15 -77 -46 -110 -71 -33 -24 -80 -56 -105 -71 -25 -15
-63 -41 -84 -58 -22 -17 -63 -45 -90 -63 -77 -48 -114 -75 -155 -109 -20 -17
-49 -39 -66 -48 -87 -50 -166 -100 -286 -183 -177 -123 -446 -305 -471 -319
-10 -6 -29 -20 -41 -31 -12 -11 -47 -34 -77 -52 -30 -18 -71 -43 -90 -56 -80
-56 -103 -72 -148 -105 -26 -19 -55 -39 -64 -45 -9 -5 -105 -70 -213 -142
-107 -73 -200 -133 -205 -133 -6 0 -27 -15 -47 -33 -58 -51 -312 -174 -453
-220 -19 -6 -76 -33 -126 -59 -51 -26 -101 -48 -112 -48 -11 0 -33 -11 -49
-24 -16 -14 -43 -28 -59 -32 -28 -7 -112 -45 -144 -64 -8 -5 -160 -81 -337
-169 -334 -166 -427 -215 -453 -235 -25 -18 -59 -36 -71 -36 -7 0 -40 -18 -75
-40 -35 -22 -66 -40 -70 -40 -7 0 -105 -58 -179 -105 -27 -18 -84 -50 -125
-71 -73 -38 -179 -104 -231 -143 -14 -11 -39 -26 -55 -33 -16 -7 -38 -21 -49
-31 -11 -10 -33 -26 -50 -34 -40 -21 -168 -98 -230 -140 -27 -18 -61 -41 -75
-50 -14 -9 -88 -59 -165 -110 -77 -52 -160 -109 -185 -128 -25 -19 -63 -44
-85 -56 -22 -12 -58 -36 -80 -54 -22 -17 -51 -38 -65 -45 -14 -7 -41 -26 -60
-42 -19 -16 -78 -60 -130 -97 -129 -94 -177 -131 -208 -163 -15 -16 -31 -28
-36 -28 -5 0 -28 -17 -51 -37 -24 -21 -69 -56 -100 -78 -31 -22 -91 -69 -134
-105 -43 -36 -107 -87 -142 -115 -35 -27 -93 -78 -131 -112 -37 -35 -72 -63
-78 -63 -5 0 -45 -33 -88 -73 -42 -41 -85 -78 -94 -83 -10 -5 -68 -59 -130
-120 -62 -61 -138 -129 -168 -152 -55 -42 -718 -706 -817 -818 -28 -33 -91
-103 -140 -156 -76 -83 -131 -145 -278 -313 -16 -19 -50 -60 -75 -91 -25 -31
-69 -83 -97 -115 -29 -32 -53 -63 -53 -69 0 -6 -24 -37 -52 -69 -29 -33 -71
-85 -93 -116 -22 -31 -52 -72 -67 -90 -16 -18 -28 -36 -28 -40 0 -4 -17 -26
-37 -49 -65 -72 -137 -166 -168 -220 -16 -29 -44 -70 -60 -92 -17 -21 -38 -50
-48 -64 -9 -14 -30 -43 -46 -65 -17 -22 -39 -56 -50 -76 -11 -19 -27 -42 -36
-49 -9 -8 -30 -39 -46 -69 -16 -31 -39 -69 -51 -86 -72 -97 -98 -136 -124
-185 -16 -30 -39 -69 -51 -86 -13 -17 -23 -35 -23 -40 0 -5 -21 -36 -46 -69
-24 -33 -47 -71 -51 -85 -3 -14 -18 -41 -33 -61 -16 -20 -42 -65 -59 -100 -37
-76 -72 -138 -112 -198 -16 -25 -29 -51 -29 -58 0 -8 -11 -29 -24 -46 -28 -39
-256 -491 -256 -509 0 -8 -11 -30 -25 -50 -14 -20 -25 -44 -25 -53 0 -10 -17
-54 -38 -98 -86 -182 -122 -263 -122 -275 0 -7 -16 -44 -35 -82 -19 -38 -35
-74 -35 -79 0 -6 -11 -34 -25 -63 -13 -29 -36 -87 -50 -128 -15 -41 -49 -138
-77 -215 -27 -77 -53 -158 -58 -180 -4 -22 -21 -74 -37 -116 -17 -42 -34 -99
-38 -125 -4 -27 -13 -60 -20 -74 -22 -43 -46 -123 -56 -185 -6 -32 -14 -64
-18 -70 -9 -11 -9 -11 -45 -175 -14 -63 -34 -153 -45 -200 -19 -80 -39 -175
-62 -300 -6 -30 -15 -73 -20 -95 -13 -53 -37 -217 -58 -400 -6 -49 -15 -106
-20 -125 -9 -33 -20 -148 -43 -435 -12 -168 -12 -987 1 -1175 11 -166 35 -378
44 -400 4 -8 11 -109 16 -225 7 -170 13 -222 30 -274 12 -35 25 -69 30 -75 12
-16 30 -75 41 -137 12 -63 19 -98 54 -239 43 -176 46 -190 46 -205 0 -8 11
-39 25 -69 14 -30 25 -63 25 -72 0 -20 48 -164 60 -179 5 -5 11 -32 15 -60 5
-27 23 -82 41 -122 19 -40 34 -82 34 -95 0 -13 13 -51 29 -84 31 -66 101 -237
101 -248 0 -3 23 -51 50 -107 28 -56 50 -106 50 -113 0 -6 30 -69 65 -140 36
-71 65 -135 65 -142 0 -7 9 -23 20 -36 20 -23 57 -90 121 -218 18 -36 51 -94
74 -130 49 -76 83 -132 180 -299 11 -19 34 -50 50 -70 33 -39 79 -107 108
-159 18 -33 69 -104 122 -169 15 -18 38 -50 52 -70 14 -21 43 -58 64 -83 21
-25 59 -69 84 -98 25 -29 45 -57 45 -63 0 -5 15 -25 32 -44 36 -36 98 -109
108 -125 5 -9 117 -129 248 -267 28 -30 52 -59 52 -63 0 -5 20 -23 44 -40 24
-18 58 -51 74 -73 17 -23 65 -71 107 -107 43 -36 120 -107 173 -158 53 -50
100 -92 104 -92 4 0 36 -28 71 -61 34 -34 73 -69 87 -78 29 -18 92 -69 184
-149 33 -29 77 -62 96 -72 19 -10 44 -28 55 -40 17 -19 162 -124 214 -155 10
-5 35 -24 57 -42 44 -36 88 -68 152 -110 24 -15 79 -51 122 -80 44 -29 102
-64 129 -77 27 -14 52 -30 55 -35 3 -5 29 -21 58 -36 29 -15 60 -33 68 -40 8
-7 38 -25 65 -39 28 -15 82 -46 120 -68 121 -70 164 -94 375 -201 113 -58 235
-117 270 -132 36 -15 77 -36 92 -46 14 -11 32 -19 40 -19 7 0 48 -18 90 -39
42 -21 90 -42 107 -46 17 -4 53 -22 81 -41 27 -19 59 -34 70 -34 30 0 122 -30
141 -46 13 -12 55 -28 239 -94 19 -7 69 -25 110 -40 41 -16 95 -34 120 -40 24
-7 66 -23 92 -36 26 -13 57 -24 69 -24 12 0 76 -18 143 -39 219 -71 350 -110
392 -115 22 -3 55 -13 72 -22 37 -18 181 -54 218 -54 14 0 34 -5 45 -10 10 -6
39 -15 64 -20 25 -6 66 -15 93 -21 26 -6 76 -17 112 -24 36 -7 92 -21 125 -30
33 -9 83 -20 110 -25 73 -12 222 -38 285 -50 30 -6 98 -18 150 -25 52 -8 118
-19 145 -25 46 -9 107 -17 395 -50 52 -6 102 -13 110 -17 37 -16 432 -47 745
-58 94 -4 184 -12 200 -18 33 -12 391 -28 630 -28 278 0 679 16 708 29 16 7
73 12 130 12 153 0 629 31 762 50 39 5 117 14 175 20 58 6 128 15 155 21 28 5
97 14 155 20 58 6 132 14 165 19 146 22 264 41 315 50 30 6 100 17 155 26 196
30 284 48 313 62 9 5 42 12 72 16 94 12 172 27 245 49 39 11 93 24 120 27 79
11 175 31 245 52 36 11 88 24 115 28 28 4 93 20 145 34 52 15 118 31 145 36
28 5 97 25 154 45 58 19 119 35 135 35 17 0 51 10 76 21 25 12 88 31 140 44
52 12 109 29 125 37 17 9 46 19 65 23 19 4 88 24 153 46 64 21 124 39 133 39
8 0 34 10 57 22 42 21 74 31 156 49 25 5 52 15 60 23 19 17 127 56 154 56 11
0 50 15 87 34 37 19 85 38 106 42 22 4 62 17 91 30 28 13 58 24 65 24 8 0 18
4 23 9 6 5 52 24 103 40 51 17 115 43 142 56 27 14 55 25 62 25 7 0 49 18 93
41 44 22 107 49 139 60 33 11 69 27 80 35 11 8 26 14 33 14 7 0 45 16 84 35
40 19 77 35 83 35 6 0 86 36 177 80 92 44 172 80 178 80 9 0 145 67 321 160
19 10 77 37 129 61 52 24 115 57 140 73 25 17 111 63 191 104 80 41 152 80
160 87 8 7 51 31 95 54 44 23 106 56 137 74 31 18 89 49 127 70 75 40 130 74
171 105 14 11 52 33 85 50 33 17 75 42 94 56 19 14 40 26 47 26 6 0 17 7 25
16 7 9 38 29 68 45 31 16 81 47 111 69 30 21 78 51 105 66 28 14 59 35 70 46
22 20 92 68 160 108 24 14 56 35 72 48 15 13 78 56 138 95 61 39 112 75 113
79 2 5 29 26 60 48 32 22 84 61 117 85 33 25 71 53 85 62 14 9 41 31 62 48 34
28 102 78 137 100 41 26 140 101 171 131 19 18 49 43 67 56 81 59 180 137 197
157 11 11 24 21 29 21 6 0 35 23 66 50 31 28 72 64 91 80 19 16 63 55 98 86
35 32 75 65 90 74 115 71 1227 1160 1303 1276 9 14 45 55 81 92 35 37 77 85
94 107 16 22 59 71 97 109 37 38 67 73 67 77 0 4 32 45 71 91 130 154 147 175
166 205 10 17 36 51 57 75 49 56 144 176 176 223 14 20 41 56 61 81 20 25 46
65 58 89 12 25 26 45 31 45 5 0 29 31 54 68 24 37 51 74 60 81 9 7 16 18 16
23 0 6 10 24 23 41 25 36 34 49 62 96 11 19 37 54 58 78 20 24 37 48 37 54 0
5 15 26 33 46 18 21 41 59 50 84 10 25 29 56 42 69 14 13 25 29 25 35 0 7 15
32 34 57 19 24 55 82 82 129 75 133 100 177 169 289 36 58 70 121 76 140 6 19
17 42 24 50 15 19 69 116 112 204 19 39 43 81 54 94 10 14 19 30 19 38 0 7 20
54 44 106 24 51 53 116 65 143 12 28 26 57 31 65 24 37 60 111 60 122 0 7 18
49 40 93 22 44 40 86 40 93 0 7 16 44 35 82 19 38 35 74 35 80 0 6 12 37 26
68 15 31 32 78 40 103 18 58 100 235 114 244 6 4 24 32 41 63 16 31 50 91 74
132 25 41 50 86 57 100 16 33 74 133 114 195 17 28 51 85 75 128 24 43 54 92
66 110 12 18 43 73 69 124 25 50 57 102 70 114 13 12 24 29 24 36 0 8 11 29
24 46 13 18 38 61 56 97 18 36 43 79 54 95 12 17 28 44 36 60 8 17 24 44 36
60 12 17 25 41 29 55 4 14 22 43 39 65 18 22 47 69 64 104 18 36 38 72 46 80
7 9 24 36 38 61 13 25 35 63 49 85 31 48 101 169 120 207 22 43 101 168 110
174 5 2 18 26 29 51 11 26 31 61 44 77 13 17 44 72 70 123 26 50 54 97 62 104
23 19 94 130 94 147 0 17 28 68 58 105 12 16 22 33 22 39 0 6 11 25 24 42 13
17 36 56 51 86 15 30 38 69 50 85 12 17 35 53 50 80 66 117 104 183 132 230
105 173 192 320 259 438 19 34 42 70 51 79 8 9 28 44 44 77 15 34 39 76 52 94
13 18 32 50 42 72 17 38 42 80 126 209 22 33 39 67 39 76 0 10 17 39 38 66 21
27 44 63 52 79 8 17 24 44 36 60 12 17 38 64 59 105 20 41 43 82 50 90 7 8 27
42 45 75 18 33 53 92 79 130 25 39 54 87 63 108 10 22 31 58 46 81 16 23 34
56 40 74 6 18 24 48 39 68 15 20 37 54 48 75 60 113 79 147 101 176 13 17 24
36 24 41 0 5 6 15 14 21 8 7 27 36 42 64 14 29 35 63 45 76 11 13 19 29 19 35
0 6 36 84 80 173 44 89 80 171 80 183 0 12 7 44 16 72 14 42 15 57 5 96 -7 26
-15 58 -18 72 -7 33 -80 108 -122 126 -21 9 -68 14 -123 14 l-90 0 -132 -67
c-72 -37 -142 -74 -156 -84 -14 -9 -42 -22 -63 -28 -20 -7 -60 -29 -89 -48
-29 -20 -72 -42 -97 -50 -25 -7 -54 -22 -66 -33 -12 -11 -47 -29 -80 -40 -32
-11 -67 -28 -77 -36 -19 -18 -193 -104 -210 -104 -5 0 -22 -8 -36 -19 -15 -10
-54 -32 -87 -49 -33 -16 -141 -71 -240 -121 -99 -50 -186 -91 -193 -91 -8 0
-28 -10 -45 -22 -42 -31 -68 -43 -102 -52 -15 -4 -42 -17 -59 -30 -17 -13 -89
-51 -161 -86 -71 -34 -140 -67 -153 -73 -34 -16 -45 2 -24 41 29 53 148 226
170 246 12 10 33 41 48 70 14 28 39 65 55 81 16 17 29 35 29 39 0 5 17 29 38
55 21 25 68 92 106 149 37 56 72 104 76 107 5 3 24 27 41 53 55 78 155 226
225 330 36 53 72 101 80 105 8 4 25 30 38 56 14 26 32 54 41 61 9 8 41 51 71
96 29 44 61 87 69 94 9 8 28 37 42 64 14 28 40 67 58 86 27 29 174 238 210
298 6 9 24 33 42 54 17 20 37 47 44 60 6 12 25 38 40 56 16 18 39 52 50 75 12
23 35 58 51 77 38 45 82 107 163 227 36 53 78 111 93 128 15 18 36 47 47 66
11 18 25 41 31 52 6 10 23 30 36 45 14 15 56 74 93 132 38 58 82 119 98 136
38 42 89 117 126 184 16 30 43 68 60 84 17 17 31 34 31 40 0 5 13 24 29 41 16
16 37 44 48 61 20 33 53 81 174 254 44 63 92 133 106 155 29 44 72 101 118
156 16 20 39 51 50 69 28 47 63 98 163 233 28 40 52 77 52 83 0 6 7 17 15 24
18 15 95 127 95 138 0 5 10 17 21 28 12 10 37 42 55 69 19 28 50 70 69 95 19
25 42 59 51 75 9 17 26 42 38 57 77 99 125 165 181 248 75 110 119 172 181
255 24 33 47 67 51 75 4 8 25 40 48 70 36 47 68 94 110 159 6 8 26 36 45 63
19 26 60 84 90 128 30 45 72 101 93 126 20 25 37 48 37 52 0 4 14 23 30 42 17
19 47 62 67 95 20 33 48 74 62 91 14 17 37 50 51 73 14 24 39 60 55 80 43 51
95 128 95 139 0 5 9 17 21 28 19 17 60 73 109 149 66 102 119 176 151 211 21
23 44 55 52 70 8 16 25 38 37 49 12 11 33 41 45 66 13 25 65 101 117 170 95
127 113 152 195 274 26 39 61 88 79 110 17 22 41 58 52 81 11 22 28 47 37 54
10 8 21 24 25 36 5 12 35 41 66 65 79 61 127 141 132 223 3 52 -1 70 -25 117
-31 61 -82 111 -137 134 -43 18 -154 20 -193 3 -38 -17 -148 -85 -200 -125
-24 -17 -52 -35 -64 -38 -24 -8 -105 -63 -155 -105 -16 -14 -46 -32 -65 -40
-18 -7 -44 -22 -56 -33 -12 -11 -31 -25 -41 -31 -71 -40 -127 -75 -197 -121
-44 -29 -96 -61 -115 -70 -19 -10 -48 -29 -65 -44 -16 -15 -74 -53 -128 -85
-53 -32 -100 -62 -103 -67 -3 -5 -31 -22 -62 -38 -31 -16 -66 -39 -77 -51 -11
-12 -42 -33 -68 -47 -27 -13 -77 -44 -113 -68 -36 -25 -69 -45 -73 -45 -4 0
-16 -9 -25 -19 -10 -11 -42 -31 -71 -45 -29 -15 -59 -33 -66 -42 -7 -8 -29
-24 -49 -34 -20 -10 -43 -26 -50 -35 -8 -9 -39 -29 -70 -45 -31 -16 -62 -35
-69 -44 -8 -9 -19 -16 -26 -16 -7 0 -25 -10 -40 -22 -16 -13 -52 -36 -81 -53
-29 -16 -87 -54 -129 -82 -42 -29 -80 -53 -84 -53 -5 0 -28 -15 -52 -33 -24
-19 -66 -47 -92 -63 -54 -33 -98 -61 -184 -118 -60 -41 -150 -99 -199 -128
-16 -10 -67 -43 -114 -73 -47 -30 -105 -66 -130 -81 -25 -15 -58 -38 -73 -51
-16 -12 -34 -23 -41 -23 -7 0 -23 -12 -37 -26 -13 -14 -42 -35 -64 -46 -57
-29 -180 -105 -250 -155 -82 -59 -181 -124 -235 -156 -78 -47 -84 -51 -123
-84 -20 -18 -45 -33 -55 -33 -9 0 -39 -18 -66 -40 -26 -22 -57 -40 -67 -40
-10 0 -33 -13 -51 -28 -41 -36 -220 -153 -274 -180 -22 -11 -46 -28 -53 -36
-8 -9 -18 -16 -23 -16 -5 0 -26 -14 -46 -31 -35 -29 -64 -47 -181 -114 -29
-16 -75 -47 -102 -67 -27 -21 -52 -38 -57 -38 -5 0 -15 -7 -22 -15 -6 -8 -40
-30 -73 -50 -59 -34 -92 -55 -187 -118 -23 -16 -63 -40 -88 -54 -26 -15 -65
-41 -88 -60 -23 -18 -48 -33 -57 -33 -9 0 -31 -13 -49 -28 -40 -34 -128 -92
-184 -121 -23 -12 -50 -31 -60 -42 -11 -12 -35 -29 -54 -39 -19 -10 -72 -43
-118 -74 -46 -31 -87 -56 -91 -56 -4 0 -15 -8 -25 -19 -9 -10 -38 -29 -64 -42
-26 -13 -87 -51 -135 -84 -48 -33 -101 -67 -118 -77 -17 -9 -38 -22 -47 -30
-9 -8 -60 -40 -112 -72 -52 -32 -123 -77 -158 -101 -35 -23 -75 -48 -90 -56
-15 -7 -45 -27 -67 -44 -22 -18 -62 -45 -90 -61 -27 -16 -85 -52 -128 -81 -43
-29 -83 -53 -89 -53 -5 0 -30 -18 -56 -39 -26 -21 -65 -48 -87 -60 -22 -12
-60 -35 -85 -51 -25 -17 -58 -38 -74 -48 -16 -9 -40 -26 -55 -38 -14 -11 -42
-28 -61 -38 -19 -9 -62 -37 -95 -61 -33 -24 -82 -57 -109 -72 -26 -15 -74 -46
-105 -68 -85 -61 -279 -175 -297 -175 -33 0 -2 55 84 149 48 52 122 135 165
185 110 128 171 197 255 285 39 42 72 80 72 84 0 5 41 52 91 105 49 54 108
117 129 142 21 25 72 81 113 125 40 44 83 93 95 108 19 26 120 139 212 239 19
21 51 58 70 83 19 25 43 54 54 64 10 10 25 25 32 32 45 45 230 253 238 267 9
18 67 81 244 270 57 61 123 137 147 169 23 32 64 78 90 103 26 25 64 68 85 95
20 28 76 91 123 140 48 50 87 94 87 99 0 4 46 56 103 116 56 59 118 126 137
150 19 24 43 51 54 60 37 35 48 47 118 130 38 47 98 114 132 150 34 36 84 92
111 125 28 33 85 98 128 145 43 47 83 92 90 100 7 9 50 56 97 106 87 92 226
253 246 283 14 21 85 99 161 176 34 35 71 78 82 96 11 18 69 82 129 143 60 61
123 132 140 158 18 25 35 48 39 50 5 1 28 26 52 53 47 53 208 228 279 301 23
25 42 49 42 55 0 10 45 60 241 270 49 53 102 114 118 135 15 21 63 75 106 119
42 44 90 99 106 122 16 23 33 43 37 45 9 3 93 94 201 218 27 30 77 87 112 126
35 40 78 87 94 107 17 19 66 73 109 121 44 48 86 97 94 109 9 12 52 61 96 108
45 47 101 110 126 138 53 61 70 80 96 102 10 9 37 40 59 68 22 28 83 96 135
152 52 56 107 119 123 142 31 45 84 106 267 302 47 50 111 123 144 161 52 61
177 200 261 289 17 18 59 67 95 110 36 43 83 97 105 120 98 102 143 153 177
200 20 28 64 77 97 109 34 32 61 63 61 68 0 5 10 19 23 31 31 30 181 194 213
233 24 29 39 46 93 98 9 9 36 41 61 71 25 30 67 78 94 107 27 29 87 98 135
153 83 97 152 174 305 340 41 44 94 104 118 134 23 30 84 98 133 151 50 53
119 129 155 170 101 115 169 192 202 230 17 19 60 67 95 105 144 157 204 228
218 255 8 16 24 31 35 35 11 3 20 11 20 16 0 5 27 37 61 72 34 34 82 89 107
121 26 33 85 101 132 152 187 202 259 281 301 332 90 110 224 242 280 277 38
25 61 47 68 66 6 17 19 42 31 56 26 33 28 138 4 186 -41 80 -74 116 -136 146
-81 41 -142 41 -218 1z m-27800 -13910 c184 -6 351 -15 370 -20 19 -5 118 -14
220 -20 255 -15 511 -38 640 -59 36 -5 106 -15 155 -22 50 -6 115 -16 145 -21
30 -5 96 -13 145 -17 50 -5 104 -13 120 -19 17 -5 57 -15 90 -22 33 -6 80 -17
105 -23 25 -6 79 -14 120 -17 41 -4 129 -21 195 -37 66 -17 147 -35 180 -41
89 -15 143 -29 210 -51 33 -11 72 -21 87 -21 15 0 45 -6 65 -14 59 -22 174
-54 218 -62 22 -3 79 -19 128 -35 48 -16 108 -34 135 -39 26 -6 76 -21 112
-34 36 -13 108 -38 160 -55 52 -17 127 -42 165 -57 39 -14 88 -30 110 -35 61
-15 127 -41 154 -61 13 -10 33 -18 45 -18 32 0 136 -39 164 -61 14 -10 31 -19
38 -19 8 0 46 -15 86 -34 40 -18 109 -46 153 -61 44 -15 114 -45 155 -66 41
-21 116 -57 165 -79 50 -23 127 -59 173 -81 45 -21 88 -39 95 -39 7 0 28 -11
47 -25 18 -13 54 -32 79 -42 25 -9 59 -25 75 -36 15 -11 63 -38 105 -59 110
-56 261 -140 301 -168 14 -10 71 -40 127 -68 56 -28 104 -56 107 -61 3 -5 25
-19 48 -31 24 -12 54 -32 68 -44 14 -11 42 -30 62 -40 20 -10 47 -29 59 -42
12 -13 28 -24 34 -24 7 0 67 -37 134 -82 140 -95 155 -105 254 -171 107 -71
169 -116 197 -141 14 -12 43 -34 65 -50 22 -15 60 -43 85 -61 25 -19 59 -42
75 -51 17 -9 48 -33 70 -53 22 -21 51 -45 65 -54 14 -9 48 -32 75 -51 28 -18
70 -54 95 -80 24 -25 48 -46 53 -46 9 0 96 -72 168 -140 26 -25 80 -72 120
-105 76 -64 194 -168 246 -219 18 -17 53 -49 79 -71 91 -77 657 -641 757 -755
56 -63 120 -133 142 -155 67 -67 149 -159 166 -185 9 -14 52 -62 95 -107 44
-45 120 -132 169 -193 50 -62 104 -126 121 -144 17 -18 37 -43 44 -56 12 -24
32 -50 111 -143 19 -23 45 -58 57 -78 12 -19 31 -44 43 -55 12 -10 37 -41 55
-69 19 -27 54 -75 79 -105 25 -30 57 -72 71 -94 14 -21 46 -63 71 -94 25 -30
70 -94 101 -141 30 -47 61 -90 68 -94 8 -4 26 -29 41 -55 15 -26 50 -80 78
-121 27 -40 64 -96 81 -123 17 -28 38 -54 46 -59 9 -5 19 -21 22 -35 4 -15 22
-45 40 -68 36 -46 107 -153 155 -236 63 -109 113 -185 137 -211 13 -14 24 -29
24 -33 0 -4 10 -22 23 -39 32 -46 57 -95 57 -112 0 -9 7 -18 15 -21 9 -4 31
-38 51 -78 20 -39 44 -80 54 -91 10 -11 30 -43 44 -72 28 -57 86 -132 180
-235 70 -76 196 -239 219 -283 8 -16 29 -43 46 -59 17 -17 31 -33 31 -37 0 -4
19 -35 43 -69 23 -34 46 -69 52 -78 5 -10 27 -44 49 -77 21 -32 47 -78 57
-101 10 -23 25 -46 32 -53 8 -6 22 -30 32 -53 10 -24 27 -52 36 -63 10 -11 27
-45 38 -76 12 -30 32 -70 46 -89 14 -19 25 -41 25 -50 0 -9 15 -41 34 -72 18
-31 37 -73 41 -94 3 -21 20 -65 37 -98 17 -34 35 -74 39 -91 4 -16 23 -77 42
-135 63 -191 123 -423 136 -530 3 -30 10 -61 15 -68 13 -21 29 -302 29 -522 0
-223 -14 -442 -31 -505 -6 -22 -25 -98 -43 -170 -17 -71 -40 -147 -50 -167
-10 -21 -19 -45 -19 -55 0 -10 -18 -52 -40 -93 -22 -41 -40 -81 -40 -90 0 -8
-15 -40 -34 -70 -19 -31 -38 -68 -42 -84 -3 -15 -13 -30 -21 -33 -7 -3 -26
-26 -40 -52 -92 -158 -341 -425 -478 -514 -22 -15 -58 -39 -80 -55 -23 -16
-72 -46 -109 -68 -37 -21 -82 -47 -99 -58 -18 -10 -48 -24 -67 -31 -19 -7 -65
-27 -102 -44 -36 -17 -76 -31 -88 -31 -11 0 -33 -6 -48 -14 -51 -26 -147 -55
-202 -62 -30 -3 -82 -13 -115 -21 -94 -23 -328 -46 -465 -46 -127 0 -374 23
-465 42 -27 6 -90 17 -140 25 -49 7 -133 27 -186 45 -53 17 -105 31 -116 31
-34 0 -240 69 -350 116 -56 24 -106 44 -111 44 -5 0 -21 9 -35 20 -13 11 -48
25 -76 31 -27 6 -70 24 -93 40 -24 16 -50 29 -59 29 -9 0 -27 8 -40 19 -13 10
-44 28 -69 41 -25 12 -54 30 -65 40 -11 10 -55 36 -97 58 -89 46 -325 201
-352 231 -11 12 -24 21 -31 21 -6 0 -36 20 -66 45 -30 24 -78 64 -108 87 -29
24 -78 66 -110 93 -31 28 -76 65 -101 82 -25 17 -74 61 -110 98 -36 37 -87 78
-114 92 -28 14 -85 47 -128 74 -43 27 -81 49 -85 49 -8 0 -78 46 -106 70 -11
8 -43 29 -72 45 -50 29 -67 41 -200 139 -33 24 -80 58 -105 74 -25 17 -66 51
-92 76 -26 24 -57 50 -70 57 -27 14 -79 58 -220 187 -56 52 -118 104 -137 117
-20 13 -98 87 -174 166 -199 207 -256 264 -362 359 -52 47 -130 117 -173 155
-42 39 -115 103 -162 142 -162 136 -824 820 -879 908 -10 17 -38 48 -61 70
-23 22 -61 65 -83 95 -23 30 -72 91 -111 135 -38 44 -96 116 -129 160 -32 44
-65 87 -73 95 -49 54 -97 120 -150 206 -11 19 -33 47 -47 62 -15 16 -27 33
-27 39 0 6 -7 16 -16 24 -8 7 -24 29 -35 48 -18 32 -36 59 -85 126 -8 11 -36
56 -62 100 -26 44 -62 100 -80 124 -17 24 -32 49 -32 54 0 6 -22 43 -50 84
-27 40 -50 77 -50 82 0 4 -9 16 -20 26 -11 10 -34 47 -50 82 -41 87 -108 183
-135 193 -23 9 -99 114 -110 153 -9 28 -163 337 -179 357 -7 8 -27 44 -46 80
-18 36 -43 78 -54 95 -12 16 -25 37 -31 46 -12 19 -74 109 -109 157 -13 18
-38 48 -55 68 -17 19 -31 39 -31 44 0 5 -18 30 -40 55 -22 25 -40 49 -40 53 0
4 -16 25 -36 47 -20 22 -44 57 -55 77 -22 43 -104 163 -133 196 -12 13 -32 43
-46 66 -47 79 -85 131 -125 172 -23 22 -66 71 -97 109 -84 105 -607 614 -766
746 -29 24 -91 78 -136 119 -46 41 -105 91 -131 110 -26 19 -83 65 -127 103
-44 37 -83 67 -87 67 -4 0 -34 22 -67 50 -176 148 -282 228 -345 260 -19 10
-41 26 -48 34 -8 9 -19 16 -25 16 -7 0 -23 12 -37 26 -13 14 -37 33 -54 41
-16 9 -46 29 -65 45 -19 16 -71 53 -115 82 -44 29 -129 86 -190 128 -60 41
-133 87 -162 101 -28 15 -54 31 -58 37 -3 5 -25 18 -48 29 -23 10 -67 38 -97
60 -30 22 -93 61 -140 86 -99 53 -151 85 -177 106 -10 8 -38 25 -63 38 -25 13
-52 30 -60 37 -8 7 -67 39 -130 71 -63 33 -140 75 -170 95 -87 56 -380 371
-380 408 0 7 -6 24 -14 38 -34 65 -66 141 -66 158 0 10 -7 41 -15 68 -21 68
-21 314 0 382 8 27 15 64 15 83 0 19 7 42 15 51 14 16 44 86 65 151 4 14 36
63 71 108 35 45 70 92 78 104 25 38 104 117 171 172 36 29 79 66 97 81 17 16
49 38 70 49 21 10 56 33 78 50 42 33 193 115 212 115 6 0 46 17 89 37 43 21
101 40 129 44 64 9 166 52 230 97 110 78 139 81 735 62z m-2285 -2307 c61 -5
117 -13 125 -18 8 -5 32 -12 55 -16 22 -4 56 -12 75 -18 19 -5 58 -16 85 -24
28 -8 85 -31 128 -51 43 -20 83 -36 88 -36 11 0 162 -78 224 -115 22 -14 49
-29 60 -34 11 -5 45 -28 75 -50 30 -22 75 -49 99 -61 24 -11 60 -34 80 -51 20
-16 74 -60 121 -96 47 -36 123 -97 169 -137 123 -105 490 -466 508 -501 9 -16
47 -61 84 -99 38 -39 69 -75 69 -81 0 -5 17 -28 38 -49 20 -22 53 -61 72 -87
19 -26 62 -84 95 -129 33 -45 76 -101 95 -124 19 -24 46 -62 60 -85 14 -24 35
-55 46 -69 12 -15 31 -46 43 -69 11 -23 34 -57 49 -75 15 -18 36 -46 46 -63
10 -16 29 -41 41 -55 13 -14 26 -36 30 -50 4 -14 22 -43 41 -66 18 -23 36 -54
40 -70 4 -16 14 -37 23 -48 18 -20 61 -95 119 -206 131 -251 210 -411 216
-436 4 -16 18 -43 31 -59 12 -17 30 -53 39 -79 9 -27 26 -60 36 -74 11 -13 20
-31 20 -38 0 -7 16 -46 36 -86 19 -40 42 -93 51 -117 8 -25 25 -68 38 -95 13
-28 40 -94 60 -146 32 -81 142 -318 193 -415 8 -16 45 -86 80 -155 36 -69 70
-132 77 -140 7 -8 36 -60 65 -115 30 -55 62 -111 72 -124 10 -13 18 -28 18
-33 0 -4 12 -27 27 -51 15 -23 55 -89 89 -147 34 -58 71 -118 83 -135 11 -16
32 -52 47 -80 15 -27 42 -70 60 -94 19 -24 34 -48 34 -53 0 -6 15 -29 33 -51
31 -39 98 -140 135 -201 9 -16 31 -45 47 -65 17 -20 44 -56 60 -81 36 -54 83
-117 108 -145 25 -27 143 -190 164 -226 10 -16 20 -29 24 -29 3 0 18 -18 33
-40 25 -37 181 -229 197 -240 3 -3 17 -21 30 -40 26 -38 98 -119 165 -185 22
-22 48 -52 57 -67 17 -27 186 -213 274 -301 26 -27 55 -55 63 -63 231 -233
435 -429 543 -520 32 -27 89 -77 126 -111 37 -35 72 -63 78 -63 5 0 32 -23 59
-50 27 -28 65 -60 84 -72 19 -12 56 -40 81 -62 26 -23 75 -61 109 -86 34 -25
87 -69 118 -98 31 -29 70 -60 86 -68 16 -9 57 -38 90 -64 34 -26 75 -54 91
-63 17 -8 43 -29 59 -46 17 -17 34 -31 40 -31 5 0 24 -13 41 -29 16 -16 53
-41 80 -56 28 -15 64 -38 82 -51 17 -13 36 -24 41 -24 4 0 19 -12 33 -26 13
-14 46 -36 73 -50 27 -14 61 -35 76 -47 28 -22 54 -39 146 -92 29 -16 61 -38
71 -47 11 -10 23 -18 27 -18 4 0 22 -10 39 -22 33 -24 45 -31 117 -68 25 -13
56 -32 69 -42 13 -10 31 -18 41 -18 9 0 33 -12 53 -27 80 -61 138 -90 276
-135 79 -27 149 -48 155 -48 6 0 47 -10 91 -24 189 -58 252 -76 290 -81 241
-31 371 -52 389 -62 13 -8 82 -22 166 -32 85 -11 153 -29 219 -58 29 -12 68
-23 85 -23 17 0 67 -14 111 -31 44 -17 103 -35 130 -41 60 -11 126 -32 180
-57 22 -10 56 -21 76 -25 20 -3 63 -19 95 -35 33 -15 71 -31 86 -35 15 -3 60
-21 100 -40 147 -69 211 -96 222 -96 6 0 31 -14 56 -30 25 -17 63 -35 85 -41
22 -6 49 -19 60 -29 11 -10 54 -35 95 -55 41 -21 87 -46 102 -56 14 -11 32
-19 39 -19 6 0 27 -11 45 -25 18 -14 36 -25 39 -25 4 0 20 -10 35 -22 15 -13
43 -32 61 -43 18 -11 43 -27 54 -35 11 -8 36 -24 54 -35 18 -11 69 -48 113
-82 45 -35 85 -63 90 -63 5 0 47 -36 93 -80 46 -44 87 -80 92 -80 15 0 282
-269 313 -315 8 -13 36 -51 63 -86 123 -165 267 -420 267 -474 0 -14 7 -40 16
-57 50 -96 55 -139 56 -402 l0 -251 -44 -125 c-46 -129 -60 -158 -115 -238
-18 -26 -48 -69 -66 -97 -50 -72 -197 -209 -307 -283 -52 -35 -113 -78 -135
-96 -57 -44 -133 -79 -265 -121 -63 -20 -124 -42 -135 -49 -11 -7 -56 -21
-100 -31 -44 -9 -113 -28 -152 -41 -40 -14 -108 -29 -150 -35 -163 -22 -247
-37 -328 -58 -22 -6 -81 -11 -131 -11 -50 0 -104 -4 -120 -10 -27 -8 -103 -18
-344 -41 -215 -21 -373 -27 -705 -27 -433 0 -577 8 -975 52 -80 9 -198 20
-263 25 -64 5 -123 13 -130 19 -6 5 -30 12 -52 16 -22 3 -67 10 -100 15 -33 5
-103 14 -155 21 -52 7 -122 22 -155 33 -33 11 -89 24 -125 28 -82 9 -192 33
-250 54 -46 17 -94 28 -190 45 -50 9 -126 30 -235 65 -22 7 -58 17 -80 23 -22
5 -98 29 -170 51 -71 23 -137 41 -146 41 -9 0 -47 12 -85 26 -38 14 -89 33
-114 41 -124 42 -170 58 -230 80 -36 13 -112 40 -170 59 -58 19 -138 50 -178
69 -40 19 -78 35 -83 35 -5 0 -44 16 -85 35 -41 19 -79 35 -84 35 -5 0 -38 13
-72 29 -35 16 -103 46 -153 66 -101 42 -120 50 -155 70 -14 7 -79 39 -145 71
-216 102 -540 265 -556 280 -8 7 -31 19 -50 25 -19 7 -41 18 -49 25 -8 7 -49
29 -90 50 -41 20 -88 48 -103 60 -16 13 -37 24 -47 24 -10 0 -32 11 -48 25
-17 14 -34 25 -40 25 -5 0 -15 6 -21 14 -7 8 -40 29 -74 46 -63 32 -148 83
-202 120 -16 11 -52 35 -80 52 -27 17 -62 39 -77 49 -15 11 -31 19 -37 19 -5
0 -27 15 -49 33 -22 17 -72 52 -111 76 -39 25 -79 53 -89 64 -9 11 -42 32 -72
48 -60 33 -104 61 -165 109 -37 29 -103 77 -183 132 -18 13 -56 41 -84 63
-111 87 -163 125 -170 125 -7 0 -65 47 -162 133 -52 46 -102 85 -186 144 -14
10 -36 30 -48 45 -13 16 -28 28 -33 28 -6 0 -36 25 -67 56 -31 31 -69 64 -83
73 -35 22 -168 143 -373 340 -93 90 -180 168 -193 174 -13 6 -23 14 -23 19 0
4 -60 66 -132 138 -145 142 -137 134 -190 193 -20 23 -86 95 -145 159 -116
126 -193 214 -331 375 -142 166 -166 195 -194 238 -15 22 -40 53 -57 69 -17
17 -31 34 -31 39 0 5 -18 31 -40 56 -44 50 -74 86 -120 142 -37 46 -100 139
-100 148 0 5 -9 16 -21 27 -19 17 -104 138 -154 219 -41 66 -73 111 -90 125
-10 8 -26 33 -35 56 -18 42 -65 110 -119 174 -16 20 -33 48 -36 62 -4 15 -22
44 -40 65 -18 21 -49 70 -69 108 -51 95 -101 176 -126 200 -11 12 -20 27 -20
36 0 8 -6 23 -14 34 -17 24 -52 86 -79 140 -11 22 -28 49 -38 60 -9 11 -40 65
-68 120 -28 55 -57 111 -65 125 -8 14 -26 50 -41 80 -14 30 -31 66 -39 80 -8
14 -25 50 -40 80 -14 30 -30 62 -35 70 -14 23 -101 215 -101 224 0 4 -16 40
-35 80 -19 40 -35 78 -35 85 0 6 -18 47 -40 91 -22 44 -40 87 -40 96 0 9 -10
37 -23 63 -24 47 -32 69 -88 241 -17 52 -37 106 -44 120 -19 37 -125 359 -125
380 0 9 -9 38 -21 64 -11 26 -35 107 -54 180 -18 73 -38 143 -44 154 -6 11
-11 32 -11 45 0 14 -14 76 -31 138 -32 121 -53 210 -69 297 -5 30 -12 62 -15
71 -5 15 -12 64 -35 226 -22 150 -28 183 -39 203 -6 11 -11 49 -12 84 0 35 -5
90 -10 123 -16 98 -28 264 -40 537 -11 254 -4 549 20 783 27 268 35 327 53
395 12 41 24 98 29 125 4 28 19 93 33 145 15 52 32 116 39 141 7 25 17 52 24
60 15 19 53 128 53 155 0 12 8 32 19 45 22 28 111 210 111 226 0 7 17 32 38
57 20 25 62 84 92 131 75 116 288 324 429 420 29 19 57 35 61 35 14 0 84 34
115 56 17 11 53 28 80 37 171 55 218 67 266 67 30 0 61 5 69 10 16 11 210 7
395 -7z"/>
<path d="M23080 36412 c-52 -27 -107 -52 -123 -56 -15 -3 -51 -21 -80 -40 -28
-18 -61 -36 -73 -40 -25 -8 -219 -114 -254 -138 -13 -10 -30 -18 -38 -18 -7 0
-28 -11 -46 -25 -18 -13 -53 -34 -79 -45 -25 -11 -49 -25 -52 -30 -4 -6 -23
-19 -43 -30 -86 -47 -137 -79 -176 -109 -53 -42 -134 -97 -166 -113 -22 -11
-67 -43 -151 -107 -14 -11 -43 -28 -65 -38 -21 -9 -55 -31 -75 -48 -102 -84
-190 -149 -230 -169 -8 -3 -41 -27 -74 -51 -33 -25 -73 -53 -89 -63 -16 -9
-49 -34 -73 -54 -24 -21 -47 -38 -51 -38 -4 0 -20 -12 -37 -26 -16 -15 -46
-37 -65 -49 -19 -12 -46 -34 -59 -49 -14 -14 -29 -26 -35 -26 -6 0 -48 -28
-93 -63 -46 -34 -112 -84 -148 -111 -36 -27 -65 -52 -65 -56 0 -5 -15 -17 -32
-29 -18 -11 -69 -50 -113 -85 -67 -55 -156 -119 -269 -196 -13 -8 -45 -34 -73
-57 -28 -24 -53 -43 -57 -43 -10 0 -141 -97 -232 -172 -25 -21 -49 -38 -55
-38 -5 0 -26 -15 -46 -34 -21 -18 -56 -43 -78 -54 -22 -11 -66 -42 -97 -69
-31 -26 -83 -65 -115 -86 -32 -20 -92 -64 -133 -97 -41 -33 -91 -67 -110 -75
-19 -9 -48 -29 -65 -44 -16 -16 -50 -41 -75 -56 -25 -16 -85 -58 -135 -95 -49
-37 -101 -73 -115 -80 -14 -7 -41 -26 -60 -42 -48 -40 -145 -108 -201 -140
-25 -15 -61 -41 -80 -59 -19 -18 -74 -59 -124 -93 -49 -33 -109 -77 -131 -97
-23 -21 -55 -44 -71 -52 -16 -9 -36 -23 -43 -32 -24 -29 -156 -124 -193 -140
-19 -8 -56 -32 -80 -52 -25 -21 -62 -49 -82 -63 -20 -14 -58 -41 -84 -61 -26
-20 -61 -44 -77 -52 -36 -19 -120 -74 -160 -105 -16 -13 -43 -33 -61 -45 -17
-12 -56 -40 -85 -63 -29 -22 -69 -49 -88 -58 -19 -10 -46 -29 -60 -42 -41 -40
-132 -104 -280 -198 -34 -21 -94 -66 -135 -100 -40 -33 -99 -79 -130 -101 -32
-22 -76 -54 -99 -72 -23 -18 -61 -44 -86 -59 -25 -15 -58 -39 -75 -54 -16 -15
-38 -31 -47 -36 -19 -10 -99 -74 -179 -141 -27 -24 -54 -43 -59 -43 -5 0 -30
-18 -55 -40 -25 -22 -49 -40 -53 -40 -4 0 -24 -16 -46 -35 -21 -19 -42 -35
-48 -35 -5 0 -30 -19 -56 -43 -46 -42 -59 -52 -136 -103 -21 -14 -67 -51 -101
-82 -35 -32 -89 -75 -120 -97 -31 -22 -87 -65 -123 -96 -37 -30 -83 -64 -102
-75 -19 -10 -54 -36 -77 -56 -24 -21 -47 -38 -52 -38 -5 0 -30 -17 -55 -37
-77 -65 -129 -102 -174 -126 -43 -23 -104 -66 -170 -123 -21 -17 -48 -37 -62
-44 -30 -16 -130 -82 -225 -150 -38 -28 -75 -50 -82 -50 -6 0 -42 -21 -80 -46
-37 -25 -86 -55 -108 -66 -22 -12 -53 -31 -70 -43 -16 -13 -55 -35 -86 -49
-31 -15 -72 -37 -91 -50 -29 -20 -83 -50 -213 -118 -16 -9 -41 -21 -55 -28
-29 -12 -80 -90 -80 -120 0 -11 7 -37 16 -59 12 -30 26 -44 60 -60 24 -12 56
-21 71 -21 42 0 142 34 230 78 43 22 97 45 119 51 23 6 61 24 85 41 24 16 48
30 52 30 15 0 81 33 112 55 17 12 53 30 82 40 29 10 64 29 78 41 14 12 40 28
58 35 17 7 46 23 63 36 17 13 37 23 45 23 20 1 90 42 236 141 71 47 160 107
198 132 39 25 79 55 89 66 11 12 23 21 29 21 5 0 27 16 48 35 21 19 60 46 86
60 56 30 95 58 142 104 19 18 48 39 65 48 32 16 68 43 121 87 114 98 184 154
210 170 17 11 39 28 50 38 47 43 102 86 130 101 17 9 59 41 95 71 36 31 90 74
120 97 30 23 74 58 96 78 36 31 102 79 217 158 33 23 94 69 150 114 17 14 50
38 72 52 22 15 58 40 80 56 59 45 156 111 161 111 3 0 37 27 77 60 40 32 88
72 107 88 19 16 58 41 85 56 86 46 125 72 158 104 18 18 38 32 43 32 6 0 21
11 33 24 13 13 68 53 123 88 55 34 119 79 142 99 22 20 57 44 76 54 19 10 57
35 84 56 27 22 56 39 66 39 9 0 34 15 56 33 21 18 57 44 79 58 22 14 69 45
104 68 35 22 67 41 72 41 5 0 28 14 51 30 22 17 49 30 59 30 11 0 36 15 56 34
21 18 58 43 82 56 24 12 65 37 91 55 27 19 70 46 97 60 26 14 94 59 150 98 57
40 124 85 150 100 144 85 167 97 179 97 7 0 34 18 59 40 25 22 52 40 59 40 7
0 25 9 40 21 15 11 57 37 94 56 37 20 105 61 152 91 47 31 123 76 170 101 47
24 99 54 115 65 40 28 61 41 118 74 27 15 63 37 80 49 18 12 57 36 87 53 76
43 113 65 207 126 45 30 86 54 91 54 11 0 151 83 207 123 81 57 151 100 195
120 25 11 58 30 73 43 16 13 37 24 47 24 10 0 31 10 47 23 15 12 44 31 63 41
19 10 50 31 68 45 48 37 113 79 142 91 14 6 33 19 43 28 17 16 39 30 137 87
18 11 52 36 74 55 23 19 48 40 57 45 38 24 116 83 150 113 20 17 40 32 44 32
4 0 42 26 83 58 42 31 90 66 108 77 40 26 103 77 173 141 31 29 75 62 98 74
23 12 70 46 103 76 33 29 73 60 88 68 15 8 41 29 57 46 17 18 53 47 82 66 28
18 56 42 62 53 6 10 28 29 48 42 21 12 63 47 94 76 31 30 68 62 83 72 15 10
34 28 43 40 8 13 29 31 46 41 55 34 378 363 398 405 30 64 25 119 -15 179 -55
83 -67 91 -155 93 -73 3 -79 1 -171 -45z"/>
<path d="M39043 36219 c-6 -6 -29 -15 -52 -20 -23 -5 -75 -25 -117 -44 -41
-19 -81 -35 -88 -35 -7 0 -38 -16 -70 -35 -32 -19 -63 -35 -68 -35 -14 0 -106
-48 -113 -60 -3 -5 -24 -14 -47 -21 -23 -6 -78 -31 -122 -56 -125 -69 -129
-71 -157 -85 -75 -37 -148 -79 -154 -88 -4 -6 -30 -22 -58 -36 -29 -14 -65
-39 -82 -54 -16 -15 -46 -33 -65 -39 -19 -6 -49 -24 -66 -40 -17 -16 -59 -43
-93 -60 -34 -17 -84 -47 -109 -66 -26 -20 -72 -52 -102 -72 -30 -20 -69 -48
-86 -62 -28 -24 -67 -49 -163 -108 -20 -12 -65 -47 -101 -78 -146 -124 -171
-145 -198 -159 -16 -8 -35 -22 -43 -32 -8 -9 -26 -24 -40 -33 -15 -9 -72 -59
-128 -111 -55 -51 -108 -98 -118 -104 -14 -8 -240 -231 -346 -344 -12 -12 -28
-29 -35 -36 -58 -61 -147 -149 -193 -191 -77 -71 -473 -485 -512 -535 -17 -23
-57 -70 -88 -104 -31 -33 -64 -75 -74 -93 -10 -17 -29 -37 -43 -44 -13 -7 -30
-25 -37 -39 -7 -14 -27 -38 -44 -54 -17 -17 -31 -35 -31 -41 0 -6 -23 -33 -51
-60 -28 -28 -59 -66 -69 -85 -10 -19 -32 -48 -49 -64 -17 -17 -31 -34 -31 -39
0 -5 -35 -49 -77 -97 -43 -49 -96 -112 -118 -141 -22 -28 -48 -59 -59 -69 -65
-62 -186 -200 -186 -213 0 -7 -25 -37 -55 -67 -31 -30 -67 -74 -81 -97 -14
-24 -28 -43 -33 -43 -4 0 -17 -17 -29 -38 -11 -21 -31 -47 -43 -58 -12 -10
-35 -39 -52 -64 -26 -38 -189 -235 -311 -376 -20 -23 -36 -45 -36 -49 0 -4
-13 -24 -28 -44 -16 -20 -46 -72 -66 -116 -45 -94 -45 -139 0 -186 69 -72 165
-54 213 39 10 19 103 120 207 226 210 215 306 318 346 378 29 43 104 126 308
341 69 73 163 174 210 226 47 51 93 101 104 110 10 9 53 50 95 91 316 309 594
576 604 580 7 3 72 63 145 134 72 71 144 137 159 146 15 10 82 67 148 129 213
197 250 231 275 248 14 9 50 38 80 63 30 26 67 54 82 63 14 9 29 24 32 34 3
10 18 26 33 36 53 33 127 88 167 123 23 19 59 51 81 70 22 19 71 60 109 92 39
31 102 86 141 122 40 36 101 89 136 118 35 29 96 81 134 117 158 144 202 183
235 206 19 13 62 47 95 76 127 111 149 129 180 148 52 32 85 56 155 112 99 80
140 111 193 145 26 17 52 39 58 49 5 10 15 19 21 19 6 0 37 24 69 53 55 50
123 106 253 211 33 27 65 55 69 63 5 7 26 25 47 38 51 32 141 112 162 144 25
37 24 115 -2 141 -37 37 -104 52 -127 29z"/>
<path d="M28547 35694 c-22 -8 -46 -23 -55 -33 -10 -11 -37 -30 -62 -44 -25
-13 -65 -38 -90 -56 -25 -17 -115 -79 -200 -137 -85 -58 -182 -125 -215 -149
-86 -63 -95 -70 -144 -101 -43 -28 -73 -49 -162 -108 -24 -17 -55 -40 -69 -52
-23 -20 -62 -47 -295 -205 -44 -29 -85 -60 -92 -69 -6 -8 -28 -24 -50 -35 -21
-10 -55 -35 -77 -53 -21 -19 -56 -42 -78 -52 -22 -10 -70 -44 -106 -77 -62
-54 -98 -82 -141 -108 -9 -5 -49 -38 -89 -72 -40 -35 -76 -63 -80 -63 -5 0
-31 -19 -60 -42 -28 -24 -75 -61 -103 -83 -28 -22 -75 -60 -104 -85 -29 -25
-72 -56 -96 -70 -24 -14 -71 -50 -105 -82 -34 -31 -75 -63 -90 -71 -16 -8 -42
-29 -58 -46 -17 -17 -34 -31 -39 -31 -10 0 -89 -58 -150 -111 -23 -19 -58 -46
-77 -59 -35 -24 -79 -60 -168 -136 -26 -23 -58 -47 -72 -54 -37 -19 -142 -103
-306 -245 -23 -19 -45 -35 -49 -35 -4 0 -29 -19 -55 -42 -61 -55 -174 -145
-225 -180 -59 -41 -92 -66 -176 -138 -42 -36 -106 -90 -144 -120 -105 -84
-164 -134 -235 -199 -219 -198 -230 -212 -230 -293 0 -51 35 -117 70 -135 62
-31 171 1 275 82 22 17 62 44 89 61 27 16 72 50 101 77 28 26 55 47 59 47 9 0
112 81 178 141 32 29 72 61 90 72 18 11 64 46 101 78 38 33 72 59 77 59 5 0
22 13 37 30 15 16 42 39 60 52 56 40 197 146 226 170 16 13 39 30 52 38 71 47
143 100 154 114 8 9 46 37 85 63 39 26 87 60 108 77 32 27 53 43 143 106 70
49 120 80 131 80 6 0 25 13 40 29 16 16 98 75 183 131 84 56 170 117 190 135
20 18 54 41 76 53 22 11 49 29 59 41 11 12 24 21 30 21 6 0 38 18 71 40 33 22
64 40 69 40 6 0 21 11 35 24 29 27 85 68 206 150 45 30 87 62 95 71 7 9 37 28
64 42 28 14 74 47 103 74 28 27 56 49 62 49 5 0 31 18 58 40 183 153 272 223
311 245 17 11 32 23 32 27 0 4 21 22 48 39 26 18 61 45 77 60 17 15 44 40 61
56 18 16 44 37 59 47 30 20 64 47 111 91 18 17 56 48 84 70 29 22 92 74 141
115 48 41 132 111 185 155 53 44 121 101 150 128 30 26 59 47 64 47 21 0 70
104 70 150 0 69 -52 141 -114 158 -54 14 -59 14 -109 -4z"/>
<path d="M38045 27869 c-44 -24 -128 -97 -284 -248 -57 -56 -106 -101 -109
-101 -3 0 -40 -33 -82 -72 -43 -40 -101 -93 -129 -118 -29 -25 -116 -106 -193
-180 -77 -74 -148 -138 -158 -142 -11 -4 -27 -19 -37 -35 -10 -15 -44 -52 -76
-83 -79 -74 -119 -114 -202 -202 -39 -41 -84 -83 -100 -94 -31 -20 -107 -99
-114 -118 -4 -10 -191 -196 -253 -252 -13 -11 -30 -28 -38 -37 -8 -8 -44 -45
-80 -80 -36 -35 -80 -82 -99 -103 -19 -22 -125 -131 -236 -244 -110 -113 -214
-223 -230 -245 -16 -22 -80 -94 -142 -160 -247 -260 -285 -302 -326 -354 -23
-29 -71 -86 -106 -125 -35 -39 -81 -91 -103 -116 -22 -25 -68 -75 -102 -111
-33 -36 -97 -110 -141 -163 -44 -54 -117 -141 -162 -194 -45 -54 -104 -123
-130 -155 -26 -32 -68 -80 -93 -107 -25 -26 -61 -69 -80 -95 -19 -26 -49 -63
-66 -83 -17 -21 -40 -53 -52 -72 -11 -19 -44 -57 -71 -85 -28 -27 -51 -53 -51
-58 0 -5 -18 -29 -40 -54 -22 -25 -40 -50 -40 -56 0 -5 -16 -28 -35 -51 -100
-115 -162 -194 -185 -231 -39 -65 -81 -122 -132 -180 -26 -30 -52 -63 -58 -75
-17 -31 -95 -134 -115 -150 -9 -8 -25 -30 -35 -49 -10 -20 -32 -49 -49 -65
-17 -17 -31 -34 -31 -39 0 -5 -14 -26 -31 -46 -28 -33 -119 -167 -145 -213 -7
-11 -25 -34 -41 -51 -34 -36 -113 -143 -113 -152 0 -11 -87 -129 -114 -154
-14 -13 -37 -47 -52 -75 -14 -28 -38 -64 -53 -81 -29 -32 -83 -111 -94 -135
-4 -8 -23 -35 -42 -60 -35 -45 -59 -81 -131 -195 -21 -33 -50 -73 -64 -90 -25
-28 -107 -159 -175 -279 -16 -29 -44 -70 -61 -92 -17 -21 -44 -61 -60 -87 -16
-26 -56 -89 -89 -138 -33 -50 -69 -108 -80 -128 -11 -21 -32 -53 -46 -72 -14
-19 -30 -45 -34 -59 -4 -14 -22 -41 -39 -62 -17 -20 -49 -66 -71 -102 -46 -76
-156 -249 -182 -286 -19 -27 -32 -48 -70 -120 -13 -25 -42 -75 -66 -112 -23
-37 -62 -100 -86 -140 -24 -40 -58 -95 -76 -123 -18 -27 -44 -71 -58 -96 -14
-25 -33 -52 -42 -59 -9 -8 -35 -48 -57 -89 -51 -99 -117 -209 -145 -245 -12
-15 -25 -37 -29 -49 -3 -12 -12 -29 -19 -37 -7 -8 -28 -42 -45 -75 -18 -33
-41 -69 -50 -80 -10 -11 -27 -38 -38 -61 -11 -22 -38 -67 -60 -100 -22 -32
-49 -79 -62 -103 -12 -24 -30 -53 -40 -64 -11 -11 -22 -33 -25 -49 -4 -16 -19
-44 -35 -61 -15 -18 -36 -50 -48 -72 -11 -22 -32 -51 -46 -64 -14 -14 -26 -31
-26 -38 0 -21 -28 -70 -71 -127 -21 -28 -47 -62 -57 -76 -10 -14 -24 -40 -30
-58 -6 -19 -24 -49 -39 -67 -44 -52 -110 -151 -145 -218 -13 -23 -35 -58 -50
-78 -15 -19 -34 -51 -43 -70 -8 -18 -24 -45 -34 -59 -11 -14 -49 -70 -85 -125
-37 -55 -99 -148 -139 -207 -40 -60 -92 -140 -116 -179 -25 -38 -56 -82 -69
-97 -14 -14 -30 -40 -37 -56 -8 -17 -28 -51 -47 -76 -18 -25 -41 -62 -50 -83
-17 -38 -29 -54 -96 -139 -19 -23 -45 -64 -58 -90 -14 -27 -45 -79 -70 -115
-24 -36 -52 -79 -61 -97 -9 -17 -25 -43 -37 -57 -12 -15 -29 -39 -38 -55 -10
-16 -33 -49 -52 -74 -19 -25 -35 -49 -35 -54 -1 -5 -30 -52 -66 -106 -36 -54
-65 -100 -65 -104 0 -3 -20 -31 -45 -61 -25 -31 -52 -70 -61 -88 -24 -47 -90
-133 -155 -202 -31 -33 -68 -83 -83 -110 -26 -48 -61 -104 -100 -159 -10 -15
-29 -56 -42 -92 -28 -77 -33 -226 -10 -321 8 -32 17 -70 20 -86 8 -36 90 -96
131 -97 47 0 127 49 138 85 6 17 13 82 16 145 5 93 10 121 26 144 11 16 25 37
30 46 34 56 75 112 120 160 29 30 66 78 83 105 17 28 55 76 84 108 29 32 64
79 78 105 14 26 66 107 115 181 103 152 101 150 175 266 30 48 70 108 88 134
18 25 40 62 48 81 9 19 22 38 29 42 7 5 28 33 47 64 18 31 49 82 68 113 19 32
44 73 55 91 11 18 31 47 45 64 23 28 131 188 176 262 25 42 83 128 163 247 36
54 80 122 96 152 17 29 59 98 95 152 36 54 70 105 75 114 6 8 24 36 40 61 34
53 63 99 86 138 8 15 31 50 51 78 21 28 49 72 63 99 14 26 37 64 50 83 90 129
195 293 195 303 0 5 18 36 40 69 22 33 40 63 40 66 0 3 11 19 24 36 13 17 37
58 54 91 17 33 47 83 66 110 19 28 47 73 62 100 15 28 37 64 50 81 13 17 24
35 24 41 0 5 8 17 18 27 11 9 31 40 46 69 28 54 76 122 158 226 26 33 59 82
73 108 14 26 40 67 58 90 17 23 43 58 57 78 14 20 43 59 65 87 34 44 129 178
160 227 6 9 26 35 47 57 36 41 48 58 127 179 22 33 53 78 71 100 82 107 101
132 112 155 17 35 108 169 119 176 5 3 26 31 46 62 21 31 42 64 48 73 5 8 20
31 32 50 36 57 66 99 98 136 17 20 39 51 50 69 11 18 39 60 63 93 23 34 42 65
42 70 0 6 15 21 33 35 19 14 46 48 60 75 15 26 34 54 42 61 8 7 15 18 15 24 0
7 12 23 26 37 14 13 35 39 47 59 12 19 42 61 67 93 25 32 63 82 85 112 91 123
112 149 151 194 23 25 49 63 57 84 9 20 20 37 26 37 5 0 18 15 30 33 11 17 32
48 46 67 14 19 37 53 51 75 15 22 43 59 63 82 36 42 80 98 129 164 68 93 154
208 182 244 17 22 96 128 174 235 79 107 157 211 173 230 17 19 37 49 46 65 8
17 25 39 37 50 12 11 29 33 37 50 17 32 28 45 151 190 42 50 90 111 107 135
16 25 64 82 107 128 42 46 101 120 132 165 30 45 75 102 100 126 26 25 46 49
46 53 0 5 29 40 65 78 36 38 65 74 65 81 0 6 31 43 69 83 70 71 90 97 155 191
19 28 57 72 85 100 28 27 51 53 51 58 0 10 43 64 105 132 22 24 58 67 80 95
22 29 52 64 66 79 14 14 34 42 44 61 10 19 43 63 74 97 78 86 191 220 191 227
0 3 30 36 68 74 69 71 93 98 147 167 17 22 49 58 71 80 69 71 154 166 154 172
0 3 40 47 90 97 49 50 100 106 113 123 24 33 184 213 331 372 43 47 87 99 97
116 10 16 47 59 82 95 35 36 72 79 82 95 10 17 58 71 106 120 48 50 107 114
131 142 81 98 173 204 258 298 104 115 149 169 180 215 13 19 55 69 94 111 39
42 94 106 121 143 28 37 67 87 88 111 52 60 60 110 24 164 -18 26 -35 40 -57
45 -47 9 -51 8 -95 -15z"/>
<path d="M32925 25340 c-21 -16 -41 -30 -46 -30 -4 0 -16 -13 -25 -29 -10 -16
-26 -33 -36 -38 -10 -4 -107 -96 -216 -203 -109 -107 -209 -204 -223 -216 -13
-11 -31 -28 -39 -37 -30 -34 -78 -84 -207 -217 -73 -75 -133 -140 -133 -146 0
-5 -45 -56 -100 -114 -55 -58 -100 -109 -100 -114 0 -4 -46 -57 -102 -116 -57
-60 -139 -151 -183 -204 -44 -53 -106 -123 -138 -158 -32 -34 -67 -82 -78
-107 -11 -25 -33 -59 -48 -76 -51 -54 -61 -85 -61 -193 0 -108 16 -170 52
-209 17 -19 32 -23 78 -23 50 0 59 3 87 33 43 45 53 69 53 122 0 46 41 145 60
145 5 0 28 26 51 58 40 54 193 224 241 267 48 42 524 541 564 590 46 57 109
133 179 214 39 46 74 90 79 99 5 9 34 45 65 79 56 61 92 105 183 219 26 32 86
106 133 164 47 58 88 115 91 128 10 35 -4 72 -41 109 -44 44 -87 45 -140 3z"/>
</g>
</svg>
